<svg width="40" height="40" viewBox="0 0 40 40" fill="none" xmlns="http://www.w3.org/2000/svg">
<path d="M40 20C40 31.0457 31.0457 40 20 40C8.95431 40 0 31.0457 0 20C0 8.95431 8.95431 0 20 0C31.0457 0 40 8.95431 40 20Z" fill="#FF0000"/>
<path d="M11.5 9L13.1839 14.1824H18.6329L14.2245 17.3853L15.9084 22.5676L11.5 19.3647L7.09161 22.5676L8.77547 17.3853L4.36708 14.1824H9.81614L11.5 9Z" fill="#FFFF00"/>
<path d="M20.0304 6.47744L21.4998 7.54506L22.9693 6.47744L22.408 8.20489L23.8775 9.27252L22.0611 9.27252L21.4998 11L20.9385 9.27252L19.1222 9.27252L20.5916 8.20489L20.0304 6.47744Z" fill="#FFFF00"/>
<path d="M20.0225 25.4695L21.492 26.5371L22.9615 25.4695L22.4002 27.197L23.8696 28.2646L22.0533 28.2646L21.492 29.992L20.9307 28.2646L19.1144 28.2646L20.5838 27.197L20.0225 25.4695Z" fill="#FFFF00"/>
<path d="M25.9236 12.3975L27.393 13.4651L28.8625 12.3975L28.3012 14.125L29.7707 15.1926L27.9543 15.1926L27.393 16.92L26.8317 15.1926L25.0154 15.1926L26.4848 14.125L25.9236 12.3975Z" fill="#FFFF00"/>
<path d="M25.9236 20.3975L27.393 21.4651L28.8625 20.3975L28.3012 22.125L29.7707 23.1926L27.9543 23.1926L27.393 24.92L26.8317 23.1926L25.0154 23.1926L26.4848 22.125L25.9236 20.3975Z" fill="#FFFF00"/>
</svg>
