<svg width="40" height="40" viewBox="0 0 40 40" fill="none" xmlns="http://www.w3.org/2000/svg">
<circle cx="20" cy="20" r="20" fill="#123C9E"/>
<path d="M36.1792 8.26862L36.7656 9.08478L37.2656 9.9508L37.7656 10.8168L38.1792 11.7327L3.80094 31.581L3.21457 30.7649L2.71457 29.8989L2.21457 29.0328L1.80094 28.1169L36.1792 8.26862Z" fill="white"/>
<rect x="37.2656" y="9.95068" width="1" height="19.946" transform="rotate(60 37.2656 9.95068)" fill="#FF0000"/>
<rect x="19.4922" y="19.0576" width="1" height="19.946" transform="rotate(60 19.4922 19.0576)" fill="#FF0000"/>
<path d="M1.99698 11.4622L2.41016 10.5461L2.91016 9.68006L3.41016 8.81403L3.99698 7.99814L38.554 27.9497L38.1409 28.8658L37.6409 29.7318L37.1409 30.5979L36.554 31.4138L1.99698 11.4622Z" fill="white"/>
<rect x="2.41016" y="10.5459" width="1" height="20.0518" transform="rotate(-60 2.41016 10.5459)" fill="#FF0000"/>
<rect x="20.2754" y="19.7061" width="1" height="20.0518" transform="rotate(-60 20.2754 19.7061)" fill="#FF0000"/>
<path d="M24 39.6L23.5 39.7L23 39.78L22 39.9L21 40H20H19L18 39.9L17 39.78L16.5 39.7L16 39.6V0.400002L16.5 0.299999L17 0.220001L18 0.0999985L19 0H20H21L22 0.0999985L23 0.220001L23.5 0.299999L24 0.400002V39.6Z" fill="white"/>
<path d="M0.4 24L0.3 23.5L0.22 23L0.1 22L0 21L0 20L0 19L0.1 18L0.22 17L0.3 16.5L0.4 16L39.6 16L39.7 16.5L39.78 17L39.9 18L40 19V20V21L39.9 22L39.78 23L39.7 23.5L39.6 24H0.4Z" fill="white"/>
<rect x="18" width="4" height="40" fill="#FF0000"/>
<rect y="22" width="4" height="40" transform="rotate(-90 0 22)" fill="#FF0000"/>
</svg>
