<svg width="40" height="40" viewBox="0 0 40 40" fill="none" xmlns="http://www.w3.org/2000/svg">
<path d="M40 20C40 31.0457 31.0457 40 20 40C8.9543 40 0 31.0457 0 20C0 8.9543 8.9543 0 20 0C31.0457 0 40 8.9543 40 20Z" fill="#002768"/>
<path fill-rule="evenodd" clip-rule="evenodd" d="M36.7998 31L3.38789 31C6.96536 36.4222 13.1118 40 20.0938 40C27.0759 40 33.2223 36.4222 36.7998 31Z" fill="#CE1127"/>
<path fill-rule="evenodd" clip-rule="evenodd" d="M3.2002 9L36.6121 9C33.0346 3.57777 26.8882 -1.90735e-06 19.9062 -1.90735e-06C12.9241 -1.90735e-06 6.77766 3.57777 3.2002 9Z" fill="#CE1127"/>
<path d="M27.5 20C27.5 24.1421 24.1421 27.5 20 27.5C15.8579 27.5 12.5 24.1421 12.5 20C12.5 15.8579 15.8579 12.5 20 12.5C24.1421 12.5 27.5 15.8579 27.5 20Z" fill="white"/>
</svg>
