<svg width="40" height="40" viewBox="0 0 40 40" fill="none" xmlns="http://www.w3.org/2000/svg">
<path d="M20 0C31.0457 0 40 8.9543 40 20C40 31.0457 31.0457 40 20 40C8.9543 40 0 31.0457 0 20C0 8.9543 8.9543 0 20 0Z" fill="#29AD30"/>
<path fill-rule="evenodd" clip-rule="evenodd" d="M1.2998 13L38.7814 13C35.9439 5.40666 28.6236 0 20.0406 0C11.4575 0 4.13728 5.40666 1.2998 13Z" fill="#FDD562"/>
<path fill-rule="evenodd" clip-rule="evenodd" d="M38.7002 27L1.21863 27C4.0561 34.5933 11.3764 40 19.9594 40C28.5425 40 35.8627 34.5933 38.7002 27Z" fill="#E92233"/>
<path d="M20 7L22.9187 15.9828H32.3637L24.7225 21.5344L27.6412 30.5172L20 24.9656L12.3588 30.5172L15.2775 21.5344L7.63627 15.9828H17.0813L20 7Z" fill="white"/>
</svg>
