<svg width="40" height="40" viewBox="0 0 40 40" fill="none" xmlns="http://www.w3.org/2000/svg">
<path d="M40 20C40 31.0457 31.0457 40 20 40C8.9543 40 0 31.0457 0 20C0 8.9543 8.9543 0 20 0C31.0457 0 40 8.9543 40 20Z" fill="white"/>
<path fill-rule="evenodd" clip-rule="evenodd" d="M40 20C40 8.9543 31.0457 0 20 0C8.9543 0 0 8.9543 0 20L40 20Z" fill="#E93D4B"/>
<path fill-rule="evenodd" clip-rule="evenodd" d="M15.4998 5.27462C14.8806 5.09619 14.2218 5 13.5385 5C9.92737 5 7 7.68629 7 11C7 14.3137 9.92737 17 13.5385 17C14.2218 17 14.8806 16.9038 15.4998 16.7254C12.847 15.9609 10.9227 13.6866 10.9227 11C10.9227 8.31334 12.847 6.03912 15.4998 5.27462Z" fill="white"/>
<path d="M17.7002 6L18.037 7.03647H19.1268L18.2451 7.67705L18.5819 8.71353L17.7002 8.07295L16.8185 8.71353L17.1553 7.67705L16.2736 7.03647H17.3634L17.7002 6Z" fill="white"/>
<path d="M19.7002 12.1L20.037 13.1365H21.1268L20.2451 13.777L20.5819 14.8135L19.7002 14.1729L18.8185 14.8135L19.1553 13.777L18.2736 13.1365H19.3634L19.7002 12.1Z" fill="white"/>
<path d="M15.7002 12.1L16.037 13.1365H17.1268L16.2451 13.777L16.5819 14.8135L15.7002 14.1729L14.8185 14.8135L15.1553 13.777L14.2736 13.1365H15.3634L15.7002 12.1Z" fill="white"/>
<path d="M20.9004 8.29999L21.2372 9.33646H22.327L21.4453 9.97704L21.7821 11.0135L20.9004 10.3729L20.0187 11.0135L20.3555 9.97704L19.4738 9.33646H20.5636L20.9004 8.29999Z" fill="white"/>
<path d="M14.5 8.29999L14.8368 9.33646H15.9266L15.0449 9.97704L15.3817 11.0135L14.5 10.3729L13.6183 11.0135L13.9551 9.97704L13.0734 9.33646H14.1632L14.5 8.29999Z" fill="white"/>
</svg>
