<svg width="40" height="40" viewBox="0 0 40 40" fill="none" xmlns="http://www.w3.org/2000/svg">
<path d="M40 20C40 31.0457 31.0457 40 20 40C8.95431 40 0 31.0457 0 20C0 8.95431 8.95431 0 20 0C31.0457 0 40 8.95431 40 20Z" fill="white"/>
<path d="M15.8796 9.80111C21.5123 7.52532 27.9235 10.2467 30.1992 15.8795C32.475 21.5122 29.7537 27.9234 24.1209 30.1992C18.4881 32.4749 12.077 29.7536 9.8012 24.1208C7.52542 18.488 10.2468 12.0769 15.8796 9.80111Z" fill="#CD2E3A"/>
<path d="M27.6495 16.9096C28.5026 19.0211 27.4817 21.4264 25.3701 22.2795C23.2586 23.1326 20.8534 22.1116 20.0003 20.0001C19.1472 17.8886 16.7419 16.8676 14.6304 17.7207C12.5189 18.5738 11.4979 20.9791 12.351 23.0906C10.6448 18.8676 12.6867 14.0571 16.9098 12.3508C21.1328 10.6446 25.9433 12.6866 27.6495 16.9096ZM9.80124 24.1208C10.8941 26.8257 13.0168 28.9858 15.7022 30.1257C18.3877 31.2656 21.416 31.292 24.1209 30.1991C26.8259 29.1063 28.9859 26.9836 30.1258 24.2982C31.2657 21.6127 31.2922 18.5844 30.1993 15.8794C29.1064 13.1745 26.9838 11.0145 24.2983 9.87456C21.6128 8.73465 18.5845 8.70822 15.8796 9.80109C13.1746 10.894 11.0146 13.0166 9.87471 15.7021C8.7348 18.3875 8.70837 21.4158 9.80124 24.1208ZM24.34 19.7297C24.6781 19.5931 24.9481 19.3278 25.0906 18.9921C25.2331 18.6564 25.2364 18.2779 25.0998 17.9398C24.9632 17.6017 24.6978 17.3317 24.3622 17.1892C24.0265 17.0467 23.6479 17.0434 23.3098 17.18C22.9717 17.3166 22.7017 17.5819 22.5592 17.9176C22.4167 18.2533 22.4134 18.6318 22.55 18.9699C22.6866 19.3081 22.952 19.5781 23.2876 19.7206C23.6233 19.863 24.0019 19.8663 24.34 19.7297ZM15.6605 20.2705C15.9987 20.1339 16.3772 20.1372 16.7129 20.2797C17.0486 20.4222 17.3139 20.6922 17.4505 21.0303C17.5871 21.3684 17.5838 21.7469 17.4413 22.0826C17.2988 22.4183 17.0288 22.6836 16.6907 22.8202C16.3526 22.9569 15.9741 22.9535 15.6384 22.8111C15.3027 22.6686 15.0374 22.3986 14.9008 22.0605C14.7641 21.7223 14.7674 21.3438 14.9099 21.0081C15.0524 20.6724 15.3224 20.4071 15.6605 20.2705Z" fill="#0047A0"/>
<path d="M23.2558 16.3122C24.3823 15.857 25.6646 16.4013 26.1197 17.5279C26.5749 18.6544 26.0306 19.9367 24.9041 20.3918C23.7775 20.847 22.4953 20.3027 22.0401 19.1761C21.585 18.0496 22.1292 16.7674 23.2558 16.3122Z" fill="#CD2E3A"/>
<path d="M15.0966 19.6088C16.2232 19.1537 17.5054 19.6979 17.9606 20.8245C18.4157 21.9511 17.8714 23.2333 16.7449 23.6884C15.6183 24.1436 14.3361 23.5993 13.8809 22.4728C13.4258 21.3462 13.9701 20.064 15.0966 19.6088Z" fill="#0047A0"/>
<path fill-rule="evenodd" clip-rule="evenodd" d="M30.1992 15.8795C27.9235 10.2467 21.5123 7.52532 15.8796 9.80111C10.2468 12.0769 7.52542 18.488 9.8012 24.1208C12.077 29.7536 18.4881 32.4749 24.1209 30.1992C29.7537 27.9234 32.475 21.5122 30.1992 15.8795ZM27.7004 16.8887C25.9822 12.636 21.1417 10.5814 16.889 12.2996C12.6363 14.0178 10.5816 18.8582 12.2999 23.1109C14.0181 27.3637 18.8585 29.4183 23.1112 27.7001C27.364 25.9819 29.4186 21.1415 27.7004 16.8887Z" fill="white"/>
<rect width="1" height="7" transform="matrix(-0.731354 -0.681998 -0.681998 0.731354 9.50537 7.68201)" fill="black"/>
<rect width="1" height="7" transform="matrix(-0.731354 -0.681998 -0.681998 0.731354 10.9678 9.04602)" fill="black"/>
<rect width="1" height="7" transform="matrix(-0.731354 -0.681998 -0.681998 0.731354 12.4307 10.4099)" fill="black"/>
<rect width="1" height="3" transform="matrix(-0.766044 -0.642788 -0.642788 0.766044 36 27.6339)" fill="black"/>
<rect width="1" height="3" transform="matrix(-0.766044 -0.642788 -0.642788 0.766044 34.4683 26.3483)" fill="black"/>
<rect width="1" height="3" transform="matrix(-0.766044 -0.642788 -0.642788 0.766044 32.936 25.0627)" fill="black"/>
<rect width="1" height="3" transform="matrix(-0.766044 -0.642788 -0.642788 0.766044 33.4292 30.698)" fill="black"/>
<rect width="1" height="3" transform="matrix(-0.766044 -0.642788 -0.642788 0.766044 31.897 29.4125)" fill="black"/>
<rect width="1" height="3" transform="matrix(-0.766044 -0.642788 -0.642788 0.766044 30.3647 28.1268)" fill="black"/>
<rect width="1" height="7" transform="matrix(-0.766044 0.642787 0.642787 0.766044 4.76611 26.9972)" fill="black"/>
<rect width="1" height="7" transform="matrix(-0.766044 0.642787 0.642787 0.766044 7.83008 24.426)" fill="black"/>
<rect width="1" height="3" transform="matrix(-0.766044 0.642788 0.642788 0.766044 6.29834 25.7117)" fill="black"/>
<rect width="1" height="3" transform="matrix(-0.766044 0.642788 0.642788 0.766044 8.86914 28.7759)" fill="black"/>
<rect width="1" height="7" transform="matrix(-0.766044 0.642787 0.642787 0.766044 29.9683 8.28552)" fill="black"/>
<rect width="1" height="3" transform="matrix(-0.766044 0.642788 0.642788 0.766044 31.5 6.99988)" fill="black"/>
<rect width="1" height="3" transform="matrix(-0.766044 0.642788 0.642788 0.766044 28.436 9.57104)" fill="black"/>
<rect width="1" height="3" transform="matrix(-0.766044 0.642788 0.642788 0.766044 34.0713 10.0641)" fill="black"/>
<rect width="1" height="3" transform="matrix(-0.766044 0.642788 0.642788 0.766044 31.0073 12.6353)" fill="black"/>
</svg>
