<svg width="40" height="40" viewBox="0 0 40 40" fill="none" xmlns="http://www.w3.org/2000/svg">
<path d="M20 0C31.0457 0 40 8.9543 40 20C40 31.0457 31.0457 40 20 40C8.9543 40 0 31.0457 0 20C0 8.9543 8.9543 0 20 0Z" fill="#E70000"/>
<path fill-rule="evenodd" clip-rule="evenodd" d="M5.71713 6L34.2829 6C37.8194 9.6075 40 14.5491 40 20C40 25.4509 37.8194 30.3925 34.2829 34H5.71713C2.18064 30.3925 0 25.4509 0 20C0 14.5491 2.18064 9.6075 5.71713 6Z" fill="white"/>
<path fill-rule="evenodd" clip-rule="evenodd" d="M1.66417 12L38.3358 12C39.4062 14.4498 40 17.1556 40 20C40 22.8444 39.4062 25.5502 38.3358 28L1.66417 28C0.59379 25.5502 0 22.8444 0 20C0 17.1556 0.59379 14.4498 1.66417 12Z" fill="#001B9A"/>
</svg>
