<svg width="40" height="40" viewBox="0 0 40 40" fill="none" xmlns="http://www.w3.org/2000/svg">
<path d="M40 20C40 31.0457 31.0457 40 20 40C8.95431 40 0 31.0457 0 20C0 8.95431 8.95431 0 20 0C31.0457 0 40 8.95431 40 20Z" fill="#D9D9D9"/>
<path d="M40 20C40 31.0457 31.0457 40 20 40C8.95431 40 0 31.0457 0 20C0 8.95431 8.95431 0 20 0C31.0457 0 40 8.95431 40 20Z" fill="#FF0000"/>
<path d="M20 7L22.9187 15.9828H32.3637L24.7225 21.5344L27.6412 30.5172L20 24.9656L12.3588 30.5172L15.2775 21.5344L7.63627 15.9828H17.0813L20 7Z" fill="#FFFF00"/>
</svg>
